{"title":"Stormhouse 2011 DvDRip XviD Ac3 Feel-Free","uid":7076979,"size":766401829,"categoryP":"video","categoryS":"movies","magnet":"?xt=urn:btih:af29b7391468a0ccf9088f9f9d6bc3a8c29f0fc1&amp;dn=Stormhouse+2011+DvDRip+XviD+Ac3+Feel-Free&amp;tr=udp%3A%2F%2Ftracker.openbittorrent.com%3A80&amp;tr=udp%3A%2F%2Fopen.demonii.com%3A1337&amp;tr=udp%3A%2F%2Ftracker.coppersurfer.tk%3A6969&amp;tr=udp%3A%2F%2Fexodus.desync.com%3A6969","seeders":0,"leechers":1,"uploader":".BONE.","files":7,"time":1330880997,"description":"Genre: Horror | Thriller\nLanguage:English &lt;a href=&quot;\nhttp://www.imdb.com/title/tt1864494/&quot; rel=&quot;nofollow&quot; target=&quot;_NEW&quot;&gt;\nhttp://www.imdb.com/title/tt1864494/&lt;/a&gt;\nSource:DVD Thanks!\nEncoder:Tony\n\nFormat : AVI\nFormat/Info : Audio Video Interleave\nFile size : 730 MiB\nDuration : 1h 26mn\nOverall bit rate : 1 173 Kbps\n\nVideo\nID : 0\nFormat : MPEG-4 Visual\nFormat profile : Advanced Simple@L5\nFormat settings, BVOP : 1\nFormat settings, QPel : No\nFormat settings, GMC : No warppoints\nFormat settings, Matrix : Default (H.263)\nCodec ID : XVID\nCodec ID/Hint : XviD\nDuration : 1h 26mn\nBit rate : 716 Kbps\nWidth : 640 pixels\nHeight : 272 pixels\nDisplay aspect ratio : 2.35:1\nFrame rate : 23.976 fps\nColor space : YUV\nChroma subsampling : 4:2:0\nBit depth : 8 bits\nScan type : Progressive\nCompression mode : Lossy\nBits/(Pixel*Frame) : 0.172\nStream size : 446 MiB (61%)\nWriting library : XviD 1.2.1 (UTC 2008-12-04)\n\nAudio\nID : 1\nFormat : AC-3\nFormat/Info : Audio Coding 3\nMode extension : CM (complete main)\nCodec ID : 2000\nDuration : 1h 26mn\nBit rate mode : Constant\nBit rate : 448 Kbps\nChannel(s) : 6 channels\nChannel positions : Front: L C R, Side: L R, LFE\nSampling rate : 48.0 KHz\nBit depth : 16 bits\nCompression mode : Lossy\nStream size : 279 MiB (38%)\nAlignment : Aligned on interleaves\nInterleave, duration : 42 ms (1.00 video frame)\nInterleave, preload duration : 512 ms\n\n\nPlot:\nThe military have captured and imprisoned a supernatural entity. And now it wants to play.\n","torrent":{"xt":"urn:btih:af29b7391468a0ccf9088f9f9d6bc3a8c29f0fc1","amp;dn":"Stormhouse+2011+DvDRip+XviD+Ac3+Feel-Free","amp;tr":["udp%3A%2F%2Ftracker.openbittorrent.com%3A80","udp%3A%2F%2Fopen.demonii.com%3A1337","udp%3A%2F%2Ftracker.coppersurfer.tk%3A6969","udp%3A%2F%2Fexodus.desync.com%3A6969"],"infoHash":"af29b7391468a0ccf9088f9f9d6bc3a8c29f0fc1","infoHashBuffer":{"type":"Buffer","data":[175,41,183,57,20,104,160,204,249,8,143,159,157,107,195,168,194,159,15,193]},"announce":[],"urlList":[]}}